<svg width="97" height="41" viewBox="0 0 97 41" fill="none" xmlns="http://www.w3.org/2000/svg">
<path d="M82.1964 17.2364C83.6822 17.176 84.7881 18.2134 85.5264 19.3477C85.7775 19.7337 86.2439 20.2247 86.4073 20.6475C86.6478 21.2723 86.6665 21.5771 87.0587 22.1573C87.0539 22.9637 87.2696 25.3613 87.1163 25.9356C86.8155 27.0593 85.4411 29.1052 84.419 29.754C84.2601 29.8546 83.6234 30.0435 83.3926 30.1134C82.5392 30.4211 80.9559 29.4633 80.2842 29.3565C79.9039 28.1125 79.2843 27.6621 78.7481 26.671C78.608 26.4109 78.7874 24.3105 78.7159 23.8809C78.7804 23.4554 79.1312 22.7269 79.1143 22.3155C79.0177 21.1241 79.0481 20.5422 79.3985 19.4005C79.9294 17.6703 80.2388 17.3354 82.1964 17.2364ZM82.0421 18.588C81.7143 18.6468 81.4958 18.6993 81.2012 18.8712C80.9526 19.3611 80.8406 19.6572 80.4991 20.0909C80.6061 20.4293 80.6864 20.9874 80.7286 21.3516C83.089 22.0117 80.978 22.8713 80.4542 24.1173C79.8398 25.5798 80.8523 28.4699 82.6661 28.5343C83.3153 28.4967 83.9248 28.2093 84.3633 27.7335C85.2507 26.7682 85.7591 24.8616 85.6885 23.5665C85.6914 22.8244 85.2488 22.2329 84.9698 21.5694C84.8168 21.2053 84.7445 20.5908 84.5186 20.2803C83.957 19.5094 83.0762 18.5565 82.0421 18.588Z" fill="black"/>
<path d="M80.4375 22.4888C80.9562 22.7935 80.5716 23.4677 80.3243 23.803L80.2599 23.8454L80.2083 23.7722C80.1941 23.3688 80.2306 22.8416 80.4375 22.4888Z" fill="black"/>
<path d="M23.6128 14.9044C24.3113 14.0922 25.5407 13.8763 26.1328 14.9739C26.2428 15.2074 26.2524 15.4927 26.3163 15.7386C26.7227 17.2808 26.9019 18.85 26.9401 20.4405C26.9502 20.8609 27.2224 21.7053 27.2966 22.1635C27.3929 22.7591 27.5109 23.4555 27.6601 24.0325C27.827 24.678 28.3463 25.3885 28.7489 25.9181C29.5606 24.8719 29.7776 22.3277 30.0037 21.0231C30.156 20.1443 30.3934 19.4356 30.4367 18.5213C30.4491 18.2599 30.8455 17.3962 30.9331 17.0525C31.1363 16.2547 31.1709 14.9698 32.1012 14.6869C32.2561 14.6378 32.7385 14.4511 32.8538 14.5012C32.9127 14.8542 33.2286 15.1447 33.4685 15.4593C33.5305 16.4591 33.5328 17.498 33.6164 18.5038C33.6585 19.0101 33.5527 19.6516 33.5701 20.1789C33.6227 21.7711 33.6018 23.3665 33.6885 24.9572C33.7146 25.4168 33.9468 26.2052 34.0659 26.6694C34.1783 27.054 34.5441 27.6843 34.5373 28.0756C34.5315 28.4098 34.0785 29.0635 33.6671 29.0367C33.1315 29.0017 32.733 28.5342 32.3867 28.2037C32.6559 26.2297 31.8588 25.5255 32.217 23.3951C31.8541 22.6326 32.0239 21.0701 32.0707 20.2151C32.0798 20.0495 32.0582 19.991 31.9548 19.8781C31.7811 19.9498 31.5954 20.3212 31.5898 20.4884C31.5035 23.0822 30.1819 31.198 26.6719 25.5201C26.3913 25.0662 26.1873 24.5272 25.9706 24.0466C25.8306 23.736 25.6254 23.3008 25.5583 22.9651C25.4322 22.3348 25.5827 21.6409 25.5006 21.0009C25.3925 20.0499 25.1962 19.1172 25.0581 18.1698C25.0052 18.0812 24.9692 18.0234 24.929 17.9263L24.819 17.8864C24.6388 18.0393 24.7658 18.4328 24.5775 18.7262C24.4675 19.1703 24.5761 20.1843 24.5558 20.6698C24.4889 21.4266 24.5777 22.2862 24.4888 23.0326C24.3353 24.3198 24.3373 25.5218 24.3611 26.8104C24.3652 27.035 24.2104 27.8157 23.968 27.8852C23.4591 28.0309 22.7388 27.7072 22.2798 27.4968C22.6587 26.4702 22.5077 24.6289 22.6414 23.4622C22.7531 22.4873 22.5915 21.2719 22.7613 20.2671C23.0039 18.8318 22.7916 17.3302 23.3997 15.9633C23.528 15.6633 23.5733 15.2353 23.6128 14.9044Z" fill="black"/>
<path d="M24.5868 17.1123L24.6116 17.0559C24.695 16.8662 24.7823 16.5837 24.9653 16.5125C25.1156 16.714 25.0552 17.8106 25.0581 18.1699C25.0051 18.0812 24.9692 18.0234 24.929 17.9263L24.819 17.8864C24.6387 18.0394 24.7658 18.4328 24.5774 18.7263C24.5718 17.9768 24.5918 18.2409 24.8344 17.5985C24.8474 17.4337 24.6884 17.2564 24.5868 17.1123Z" fill="black"/>
<path d="M49.3564 14.5464C49.4685 14.6159 49.8879 15.2358 50.0273 15.3823C50.1793 15.5421 50.2611 15.6114 50.4404 15.7544C50.6323 15.7033 50.8253 15.6562 51.0195 15.6138C51.1924 15.5776 51.4249 15.5341 51.6006 15.5249C52.6192 15.4715 53.6319 15.1574 54.5449 15.7534C55.169 16.1594 55.6037 16.7947 55.7539 17.519C55.9675 18.5614 55.6868 18.9008 55.1953 19.7017L54.4268 20.9468C54.3458 21.0786 54.3485 21.1082 54.375 21.2368C54.5071 21.325 54.7142 21.2706 54.8809 21.2485C55.8052 21.6817 56.5372 22.505 57.3262 23.1509C57.5014 23.2942 57.7516 23.7816 57.9297 23.9058C58.9468 24.5649 59.7604 25.4333 60.6904 26.1763C61.4355 26.7714 62.2495 27.0501 62.9609 27.8228C64.0109 28.9636 65.3433 29.9568 66.0381 31.3843C66.1375 31.5889 66.128 32.0804 66.1318 32.3062C65.6658 33.0252 65.0338 32.9451 64.2803 32.8755C63.0897 31.7716 64.1465 30.56 62.627 29.7583C61.6428 29.3731 60.7596 28.2142 59.7461 27.6597C59.2341 27.0947 58.2661 26.5447 57.791 26.022C57.0049 25.1563 56.1677 24.2521 55.248 23.5249C54.1663 22.6693 54.1071 22.6045 52.8379 22.6948C52.9796 23.2912 53.3708 24.2559 53.4092 24.7983C53.5001 26.0749 53.4755 27.1212 53.6895 28.4116C53.5767 28.6283 53.3203 29.0733 53.1465 29.2007C51.3408 30.5238 51.5652 26.4523 51.4326 25.644C51.2996 24.8326 51.1579 24.373 51.0088 23.6157C50.9747 23.4437 50.4824 22.9174 50.3701 22.7915C50.4582 22.5644 50.5714 22.3164 50.6689 22.0903C50.2091 20.845 49.595 19.7769 49.2266 18.5288C48.9505 17.594 49.3207 17.1808 49.2598 16.3374C49.2361 16.0114 48.8499 15.214 48.7012 14.8862C48.9233 14.7328 49.1111 14.6565 49.3564 14.5464ZM49.6162 17.2446C48.9948 18.2627 50.3041 20.2488 50.7441 21.1567C50.8398 21.3549 50.9269 21.871 51.0723 21.98C51.2451 21.6969 51.0416 21.3098 51.0449 20.8794L50.6924 20.4321C50.6616 20.0746 50.6364 19.7881 50.5342 19.4448C50.3163 18.7125 49.8496 18.0797 49.708 17.3228C49.7014 17.3171 49.6248 17.2519 49.6162 17.2446ZM52.4229 16.1948C51.8063 16.3387 51.3716 16.4413 50.7314 16.4819C50.9806 17.2531 51.3481 18.0009 51.5977 18.7778C51.7326 19.1978 51.9902 19.6156 52.1641 20.02C52.2648 20.2386 52.2413 20.7575 52.3828 20.9243C52.5088 20.9659 52.6163 20.9104 52.7441 20.8657C53.8183 19.8295 54.4588 19.3093 54.4697 17.6987C54.4786 16.3523 53.8858 16.6763 52.8682 16.2583C52.7379 16.2048 52.5611 16.1769 52.4229 16.1948Z" fill="black"/>
<path d="M63.4723 14.6771C63.6196 14.2395 63.6831 13.8508 64.1989 13.7531C64.3665 13.7214 64.4868 13.6636 64.6668 13.6795C64.8293 14.2212 65.1603 14.885 65.2044 15.3927C65.6804 15.4692 66.0929 15.6067 66.5415 15.7494C68.1499 16.2613 68.0381 17.3962 68.6913 18.7703L68.6164 19.4104C69.2592 20.0504 69.0394 20.1324 69.3818 20.8121C69.8569 21.7555 70.1988 22.7621 70.6464 23.7047C70.8913 21.8469 71.508 20.0561 72.46 18.4371C72.7626 17.9198 73.177 17.4405 73.4508 16.8908C73.6857 16.4471 73.4129 15.1723 73.7284 14.8227C73.9088 14.6229 75.9004 14.6861 76.1268 14.93C76.42 15.5681 75.4969 16.0709 75.1876 16.4852C74.6155 17.2515 74.2422 18.1422 73.9661 19.0493C73.9334 19.1765 73.8742 19.446 73.816 19.5499C73.5953 20.3292 73.3684 21.0776 73.3452 21.8919C73.3409 22.0249 73.3333 22.1836 73.3206 22.316C73.3362 22.6576 73.3423 23.5136 73.3139 23.8481C73.3087 24.5168 73.3225 24.9528 73.6398 25.5568C73.7795 25.8112 73.8766 26.0205 73.9955 26.2857C73.7544 26.3624 73.3376 26.4203 73.0752 26.4643C72.5291 28.1072 72.0853 27.0151 70.9893 28.0974C70.6071 27.3987 70.4698 27.5132 69.8815 27.047C69.1531 26.4699 69.0148 24.8546 68.759 23.9412C68.3976 22.5109 67.8676 21.3147 67.1264 20.0436C66.4335 18.8554 66.245 18.5183 65.0386 17.8317C65.1826 18.5483 65.184 19.5047 65.3313 20.2183C65.6534 21.7787 65.8817 23.3245 66.1829 24.8846C66.3084 25.5746 66.2956 26.0748 66.5306 26.7539C66.7432 27.3692 67.861 27.8223 67.9444 28.4242C67.9676 28.593 67.1733 29.2558 67.0042 29.4141C65.5861 28.5959 66.0228 27.7765 65.5572 26.464C65.1921 25.4334 64.7966 24.6894 64.7004 23.5523C64.6848 23.3638 64.1757 22.5592 64.1477 22.2688C63.8185 20.8714 63.5973 19.429 63.4661 18.001C63.4131 17.4463 63.2833 16.9784 63.2454 16.3765C62.7709 16.2995 62.3072 16.2788 61.835 16.3745C62.2309 15.157 62.3129 15.1425 63.4723 14.6771Z" fill="black"/>
<path d="M73.615 18.9995C73.7756 19.0543 73.7974 19.0595 73.9665 19.0494C73.9338 19.1766 73.8746 19.4461 73.8163 19.55C73.5956 20.3292 73.3687 21.0777 73.3455 21.8919C73.3413 22.025 73.3337 22.1837 73.3209 22.3161C73.3365 22.6577 73.3427 23.5136 73.3143 23.8482C73.3091 24.5169 73.3228 24.9529 73.6401 25.5568C73.5909 25.6279 73.5222 25.7211 73.4796 25.7929C73.4085 25.8961 73.2797 25.8915 73.1655 25.9032C72.6933 25.9513 72.4177 25.3098 72.3826 24.9171C72.2732 23.6845 72.1728 22.376 72.3784 21.1497C72.4499 20.7229 72.6796 20.3431 72.8013 19.9328L72.8108 19.899L72.9344 19.9763C73.1599 19.8701 73.04 20.0159 73.3029 19.8929C73.3654 19.7456 73.3976 19.6249 73.4412 19.4711C73.48 19.3389 73.5643 19.1348 73.615 18.9995Z" fill="black"/>
<path d="M73.6147 18.9995C73.7753 19.0543 73.797 19.0595 73.9661 19.0494C73.9334 19.1766 73.8742 19.4461 73.816 19.55C73.5953 20.3292 73.3684 21.0777 73.3452 21.8919C73.3409 22.025 73.3334 22.1837 73.3206 22.3161C73.1804 22.0226 73.2893 21.5716 73.2694 21.2127C73.1685 21.5494 73.0714 21.8162 72.9445 22.1449C73.0255 21.7387 73.1695 20.6799 73.2022 20.238C73.2078 20.1619 73.025 20.2482 72.9341 19.9763C73.1595 19.8701 73.0397 20.0159 73.3026 19.8929C73.3651 19.7456 73.3973 19.6249 73.4409 19.4711C73.4797 19.3389 73.564 19.1348 73.6147 18.9995Z" fill="black"/>
<path d="M73.6147 18.9995C73.7753 19.0543 73.7971 19.0595 73.9662 19.0494C73.9335 19.1766 73.8743 19.4461 73.816 19.55C73.7218 19.6826 73.691 19.7517 73.5328 19.675C73.4821 19.5906 73.4722 19.5646 73.4409 19.4711C73.4798 19.3389 73.5641 19.1348 73.6147 18.9995Z" fill="black"/>
<path d="M73.4794 25.7929C73.2568 25.5057 73.172 25.4994 73.0517 25.1032C72.9726 24.8419 72.8542 24.1125 72.9826 23.8822L73.046 23.8809L72.9698 23.8875C73.091 23.9219 73.1194 23.9405 73.2033 24.0338C73.2331 23.9633 73.235 23.8543 73.2412 23.7747L73.3141 23.8482C73.3089 24.5168 73.3226 24.9528 73.64 25.5568C73.5907 25.6278 73.522 25.721 73.4794 25.7929Z" fill="black"/>
<path d="M73.9601 18.0718C73.8961 18.4311 73.7659 18.6738 73.6148 18.9996C73.5641 19.1349 73.4798 19.339 73.4409 19.4712C73.3974 19.625 73.3652 19.7457 73.3027 19.893C73.0398 20.016 73.1596 19.8702 72.9342 19.9764L72.8105 19.8991C72.965 19.277 73.5267 18.5496 73.9601 18.0718Z" fill="black"/>
<path d="M11.384 13.2774C11.4115 13.2755 11.4391 13.2745 11.4667 13.2745C12.2388 13.267 12.4233 13.8402 12.5007 14.4828C12.6362 15.6085 12.735 16.752 12.8049 17.8833C12.83 18.2884 12.5103 19.3757 12.6786 19.7371C13.0313 19.8854 13.6388 19.5332 14.0059 19.5151C14.4919 19.4911 14.9784 19.5461 15.4637 19.5593C15.8312 19.5708 16.2201 19.4833 16.5835 19.4888C16.99 19.4951 17.4504 19.5852 17.8527 19.6505C17.8588 18.6532 18.0024 17.896 18.1426 16.92C18.1471 16.0613 18.0768 15.9783 18.0991 15.0425C18.1105 14.5606 18.1267 13.0063 19.2407 13.8014C19.3847 13.9041 19.3594 14.6076 19.3857 14.8495C19.4759 15.6781 19.5679 16.495 19.4441 17.3334C19.4313 18.2969 19.4311 19.0827 19.3554 20.0514C19.8614 20.1319 20.4793 20.3998 20.9646 20.5912C20.9812 20.893 21.0729 21.179 21.1115 21.4294C21.2074 22.0517 19.4057 22.0751 19.0431 22.1096C19.1955 23.2863 19.2081 23.9905 19.0729 25.1632C19.0369 25.4753 19.1827 26.375 19.2176 26.7594C19.4031 26.717 19.73 26.6463 19.9039 26.7246C19.9115 26.7701 19.9213 26.8536 19.9155 26.9129C19.7971 27.7967 19.4343 29.1435 18.9078 29.853C18.5952 30.2743 17.6558 29.7641 17.4547 29.4527C17.0176 28.7759 17.6506 27.6089 17.5698 26.8225C17.5203 26.3402 17.3464 25.7995 17.3424 25.3111C17.6416 24.0218 17.5866 22.6722 17.7291 21.3808C17.754 20.6705 16.2619 21.1338 15.9009 21.1077C15.7604 21.0976 15.3203 20.9265 15.1697 20.8723C14.4078 21.1607 13.615 21.0469 12.7789 21.0354C12.8705 21.9953 12.6413 22.2134 12.6125 23.0488C12.568 24.3379 12.5848 25.6457 12.4989 26.9428C12.4416 27.8088 12.6993 28.7729 12.4057 29.6464C12.3666 29.7628 12.2765 29.9193 12.1485 29.9683C11.2665 30.2195 11.0793 29.0659 10.7238 28.5431C10.5607 28.3011 10.0378 28.1391 10.1899 27.8369C10.4248 27.6576 10.7654 27.5968 11.0544 27.5631C11.0966 26.7932 10.9739 25.9037 11.0352 25.1931C11.158 23.7697 11.2041 22.8137 11.075 21.3838C10.6513 21.5053 10.1736 21.7599 9.70999 21.8986C9.39039 21.9942 8.71352 22.1198 8.47163 22.2025C7.8337 22.4207 5.96247 22.9586 5.47733 23.2667C5.50271 23.3938 5.92671 23.809 6.04246 23.9349C5.70216 23.8559 4.87349 23.7168 4.60705 23.5339C4.4743 23.4428 4.41909 22.8772 4.44531 22.7185C4.46776 22.5826 4.52694 22.5064 4.6607 22.4354C5.58925 21.9426 6.64502 21.547 7.62478 21.1581C8.08036 20.9772 8.55139 20.7621 9.00987 20.6088C9.54612 20.4442 10.3732 20.4641 10.8379 20.1565C11.3948 19.788 11.2011 18.5686 11.2268 17.9794C11.2707 16.9722 11.2114 15.9239 11.3137 14.9166C11.0622 14.48 10.8841 13.5959 11.384 13.2774Z" fill="black"/>
<path d="M40.4729 14.2207C40.6657 14.3462 40.6664 14.8403 40.8147 15.042C41.3486 15.6038 41.7335 16.6655 42.1613 17.1865C43.2133 18.4671 43.2918 20.1002 44.385 21.3389C44.8764 21.2943 45.8535 21.3173 46.3068 21.5176C46.7085 21.6987 46.5943 22.3905 46.258 22.5352C45.8163 22.7252 45.2708 22.695 44.7932 22.8193C45.0216 23.3124 45.2571 23.5744 45.4445 24.1455C45.8095 25.2579 45.9293 25.7108 45.8869 26.8799C44.8241 27.6333 44.2193 26.3771 43.3986 25.9111C43.0234 25.6981 42.4305 25.5389 42.01 25.3877C41.1438 25.6213 40.6821 25.5838 40.6203 26.5625C40.5261 27.2692 40.5572 27.9553 40.5315 28.6621C40.4916 29.1898 40.3642 29.7677 40.3859 30.2979C40.4148 30.9992 40.1713 31.2498 39.7111 31.7197C39.4195 31.5723 39.1337 31.427 38.8078 31.3877C38.6613 30.019 38.7789 28.9059 38.7961 27.5361C38.8081 26.579 39.5934 24.8289 38.5764 24.1318C38.1894 23.8666 37.6632 23.9939 37.2678 23.8008C36.4677 22.5238 38.6949 22.2144 39.0979 22.1855C39.4308 21.514 39.2933 20.6286 39.3254 19.9014C39.3562 19.2005 39.5329 14.6314 39.6818 14.4062C39.761 14.287 40.1292 14.251 40.2668 14.2256L40.4729 14.2207ZM42.9514 22.9824C42.7224 22.953 42.2761 22.9799 42.0363 22.999C41.3 23.1227 41.1583 23.3103 40.5549 23.4873C40.6659 24.002 40.7264 24.3462 40.7082 24.873C41.1756 24.4981 41.7602 24.3122 42.3566 24.2725C42.7074 24.2901 43.0425 24.4718 43.3908 24.5479C43.6072 24.595 43.796 24.5938 44.0149 24.6094C43.9409 24.5165 43.8041 24.3439 43.76 24.2412C43.5451 23.7414 43.6608 23.0735 42.9514 22.9824ZM40.675 16.7783C40.7723 17.2755 40.6812 17.9069 40.6867 18.4316C40.6965 19.3615 40.8182 20.8761 40.6545 21.7568C41.0661 21.7115 42.0979 21.6806 42.3586 21.5146C42.5009 21.3893 42.6565 21.2596 42.7854 21.1221C42.4677 20.7302 42.3306 20.5556 42.1252 20.1084C41.7716 19.3385 41.2549 17.3278 40.675 16.7783Z" fill="black"/>
<path d="M38.9513 23.3083L39.1008 23.3121C39.2798 23.4698 39.1583 23.7352 39.022 23.8861C38.8963 23.7606 38.7517 23.7035 38.6782 23.548C38.751 23.3942 38.7792 23.4154 38.9513 23.3083Z" fill="black"/>
<path d="M91.6034 25.2102C91.8767 25.2379 92.7274 25.8874 92.7738 26.1846C92.8159 26.4533 92.4872 26.9752 92.3504 27.2038C92.1169 27.3373 92.0359 27.3578 91.7825 27.4286C91.4528 27.4791 90.7789 27.6048 90.6382 27.2355C90.659 26.9131 90.8892 26.6738 90.9934 26.3905C91.1904 25.8565 91.1762 25.629 91.6034 25.2102Z" fill="black"/>
</svg>
